HIERARCHY
ROOT mixamorig:Hips
{
	OFFSET -0.000008 104.274872 1.554316
	CHANNELS 6 Xposition Yposition Zposition Xrotation Yrotation Zrotation
	JOINT mixamorig:Spine
	{
		OFFSET -0.000005 10.181595 0.131519
		CHANNELS 6 Xposition Yposition Zposition Xrotation Yrotation Zrotation
		JOINT mixamorig:Spine1
		{
			OFFSET -0.000000 9.893959 -1.470707
			CHANNELS 6 Xposition Yposition Zposition Xrotation Yrotation Zrotation
			JOINT mixamorig:Spine2
			{
				OFFSET -0.000000 9.220757 -1.370641
				CHANNELS 6 Xposition Yposition Zposition Xrotation Yrotation Zrotation
				JOINT mixamorig:Neck
				{
					OFFSET 0.000001 16.740417 -2.049036
					CHANNELS 6 Xposition Yposition Zposition Xrotation Yrotation Zrotation
					JOINT mixamorig:Head
					{
						OFFSET 0.000000 9.617874 1.685006
						CHANNELS 6 Xposition Yposition Zposition Xrotation Yrotation Zrotation
						JOINT mixamorig:HeadTop_End
						{
							OFFSET 0.000002 22.037354 7.501101
							CHANNELS 6 Xposition Yposition Zposition Xrotation Yrotation Zrotation
							End Site
							{
								OFFSET 0.000168 2310.654297 -282.823242
							}
						}
					}
				}
				JOINT mixamorig:RightShoulder
				{
					OFFSET -4.569970 11.014908 -2.160885
					CHANNELS 6 Xposition Yposition Zposition Xrotation Yrotation Zrotation
					JOINT mixamorig:RightArm
					{
						OFFSET -10.592851 -0.524811 -2.232101
						CHANNELS 6 Xposition Yposition Zposition Xrotation Yrotation Zrotation
						JOINT mixamorig:RightForeArm
						{
							OFFSET -27.841511 0.000031 -0.000004
							CHANNELS 6 Xposition Yposition Zposition Xrotation Yrotation Zrotation
							JOINT mixamorig:RightHand
							{
								OFFSET -28.328831 -0.000015 0.000015
								CHANNELS 6 Xposition Yposition Zposition Xrotation Yrotation Zrotation
								JOINT mixamorig:RightHandThumb1
								{
									OFFSET -2.464806 -1.573990 2.681852
									CHANNELS 6 Xposition Yposition Zposition Xrotation Yrotation Zrotation
									JOINT mixamorig:RightHandThumb2
									{
										OFFSET -3.215179 -1.872803 1.924282
										CHANNELS 6 Xposition Yposition Zposition Xrotation Yrotation Zrotation
										JOINT mixamorig:RightHandThumb3
										{
											OFFSET -2.654831 -1.527969 1.512609
											CHANNELS 6 Xposition Yposition Zposition Xrotation Yrotation Zrotation
											JOINT mixamorig:RightHandThumb4
											{
												OFFSET -2.018814 -1.152008 1.108052
												CHANNELS 6 Xposition Yposition Zposition Xrotation Yrotation Zrotation
												End Site
												{
													OFFSET -188.809540 -114.533607 132.431396
												}
											}
										}
									}
								}
								JOINT mixamorig:RightHandIndex1
								{
									OFFSET -9.108284 -0.517868 2.259835
									CHANNELS 6 Xposition Yposition Zposition Xrotation Yrotation Zrotation
									JOINT mixamorig:RightHandIndex2
									{
										OFFSET -3.699989 0.000000 0.001215
										CHANNELS 6 Xposition Yposition Zposition Xrotation Yrotation Zrotation
										JOINT mixamorig:RightHandIndex3
										{
											OFFSET -2.850006 0.000031 -0.000522
											CHANNELS 6 Xposition Yposition Zposition Xrotation Yrotation Zrotation
											JOINT mixamorig:RightHandIndex4
											{
												OFFSET -2.772186 -0.000015 -0.000020
												CHANNELS 6 Xposition Yposition Zposition Xrotation Yrotation Zrotation
												End Site
												{
													OFFSET -277.218445 0.000000 -0.050231
												}
											}
										}
									}
								}
								JOINT mixamorig:RightHandMiddle1
								{
									OFFSET -9.532516 -0.000031 -0.000023
									CHANNELS 6 Xposition Yposition Zposition Xrotation Yrotation Zrotation
									JOINT mixamorig:RightHandMiddle2
									{
										OFFSET -3.700005 -0.000015 0.003713
										CHANNELS 6 Xposition Yposition Zposition Xrotation Yrotation Zrotation
										JOINT mixamorig:RightHandMiddle3
										{
											OFFSET -2.949974 0.000015 -0.002054
											CHANNELS 6 Xposition Yposition Zposition Xrotation Yrotation Zrotation
											JOINT mixamorig:RightHandMiddle4
											{
												OFFSET -2.946640 0.000000 -0.000156
												CHANNELS 6 Xposition Yposition Zposition Xrotation Yrotation Zrotation
												End Site
												{
													OFFSET -294.664337 0.000000 -0.113670
												}
											}
										}
									}
								}
								JOINT mixamorig:RightHandRing1
								{
									OFFSET -9.103600 -0.043076 -1.865134
									CHANNELS 6 Xposition Yposition Zposition Xrotation Yrotation Zrotation
									JOINT mixamorig:RightHandRing2
									{
										OFFSET -3.379288 0.000000 -0.001055
										CHANNELS 6 Xposition Yposition Zposition Xrotation Yrotation Zrotation
										JOINT mixamorig:RightHandRing3
										{
											OFFSET -2.889687 -0.000015 0.000379
											CHANNELS 6 Xposition Yposition Zposition Xrotation Yrotation Zrotation
											JOINT mixamorig:RightHandRing4
											{
												OFFSET -2.638809 -0.000015 0.000941
												CHANNELS 6 Xposition Yposition Zposition Xrotation Yrotation Zrotation
												End Site
												{
													OFFSET -263.880371 0.000000 0.516020
												}
											}
										}
									}
								}
								JOINT mixamorig:RightHandPinky1
								{
									OFFSET -8.076683 -0.486710 -3.806280
									CHANNELS 6 Xposition Yposition Zposition Xrotation Yrotation Zrotation
									JOINT mixamorig:RightHandPinky2
									{
										OFFSET -3.600014 -0.000015 -0.003747
										CHANNELS 6 Xposition Yposition Zposition Xrotation Yrotation Zrotation
										JOINT mixamorig:RightHandPinky3
										{
											OFFSET -2.099983 0.000000 -0.005739
											CHANNELS 6 Xposition Yposition Zposition Xrotation Yrotation Zrotation
											JOINT mixamorig:RightHandPinky4
											{
												OFFSET -2.115768 -0.000031 -0.003680
												CHANNELS 6 Xposition Yposition Zposition Xrotation Yrotation Zrotation
												End Site
												{
													OFFSET -211.577087 0.000000 -0.350686
												}
											}
										}
									}
								}
							}
						}
					}
				}
				JOINT mixamorig:LeftShoulder
				{
					OFFSET 4.570447 11.014725 -2.160855
					CHANNELS 6 Xposition Yposition Zposition Xrotation Yrotation Zrotation
					JOINT mixamorig:LeftArm
					{
						OFFSET 10.592371 -0.524597 -2.232119
						CHANNELS 6 Xposition Yposition Zposition Xrotation Yrotation Zrotation
						JOINT mixamorig:LeftForeArm
						{
							OFFSET 27.841532 -0.000031 0.000026
							CHANNELS 6 Xposition Yposition Zposition Xrotation Yrotation Zrotation
							JOINT mixamorig:LeftHand
							{
								OFFSET 28.328846 -0.000061 0.000022
								CHANNELS 6 Xposition Yposition Zposition Xrotation Yrotation Zrotation
								JOINT mixamorig:LeftHandThumb1
								{
									OFFSET 2.466141 -1.576172 2.681732
									CHANNELS 6 Xposition Yposition Zposition Xrotation Yrotation Zrotation
									JOINT mixamorig:LeftHandThumb2
									{
										OFFSET 3.217812 -1.872070 1.916482
										CHANNELS 6 Xposition Yposition Zposition Xrotation Yrotation Zrotation
										JOINT mixamorig:LeftHandThumb3
										{
											OFFSET 2.656029 -1.528778 1.514513
											CHANNELS 6 Xposition Yposition Zposition Xrotation Yrotation Zrotation
											JOINT mixamorig:LeftHandThumb4
											{
												OFFSET 2.020889 -1.154053 1.115139
												CHANNELS 6 Xposition Yposition Zposition Xrotation Yrotation Zrotation
												End Site
												{
													OFFSET 190.885437 -115.081749 130.048782
												}
											}
										}
									}
								}
								JOINT mixamorig:LeftHandIndex1
								{
									OFFSET 9.109314 -0.518021 2.259871
									CHANNELS 6 Xposition Yposition Zposition Xrotation Yrotation Zrotation
									JOINT mixamorig:LeftHandIndex2
									{
										OFFSET 3.699989 0.000000 -0.000322
										CHANNELS 6 Xposition Yposition Zposition Xrotation Yrotation Zrotation
										JOINT mixamorig:LeftHandIndex3
										{
											OFFSET 2.850006 0.000000 0.000352
											CHANNELS 6 Xposition Yposition Zposition Xrotation Yrotation Zrotation
											JOINT mixamorig:LeftHandIndex4
											{
												OFFSET 2.774864 -0.000031 -0.000027
												CHANNELS 6 Xposition Yposition Zposition Xrotation Yrotation Zrotation
												End Site
												{
													OFFSET 277.486267 0.000000 -0.009857
												}
											}
										}
									}
								}
								JOINT mixamorig:LeftHandMiddle1
								{
									OFFSET 9.533394 0.000061 0.000044
									CHANNELS 6 Xposition Yposition Zposition Xrotation Yrotation Zrotation
									JOINT mixamorig:LeftHandMiddle2
									{
										OFFSET 3.699989 -0.000015 -0.000231
										CHANNELS 6 Xposition Yposition Zposition Xrotation Yrotation Zrotation
										JOINT mixamorig:LeftHandMiddle3
										{
											OFFSET 2.949997 -0.000015 -0.000059
											CHANNELS 6 Xposition Yposition Zposition Xrotation Yrotation Zrotation
											JOINT mixamorig:LeftHandMiddle4
											{
												OFFSET 2.952896 0.000031 0.000063
												CHANNELS 6 Xposition Yposition Zposition Xrotation Yrotation Zrotation
												End Site
												{
													OFFSET 295.289337 0.000000 0.022810
												}
											}
										}
									}
								}
								JOINT mixamorig:LeftHandRing1
								{
									OFFSET 9.104523 -0.042999 -1.865074
									CHANNELS 6 Xposition Yposition Zposition Xrotation Yrotation Zrotation
									JOINT mixamorig:LeftHandRing2
									{
										OFFSET 3.150009 -0.000031 0.000043
										CHANNELS 6 Xposition Yposition Zposition Xrotation Yrotation Zrotation
										JOINT mixamorig:LeftHandRing3
										{
											OFFSET 2.949982 -0.000015 0.000040
											CHANNELS 6 Xposition Yposition Zposition Xrotation Yrotation Zrotation
											JOINT mixamorig:LeftHandRing4
											{
												OFFSET 2.644348 0.000000 0.000057
												CHANNELS 6 Xposition Yposition Zposition Xrotation Yrotation Zrotation
												End Site
												{
													OFFSET 264.434631 0.000000 0.012105
												}
											}
										}
									}
								}
								JOINT mixamorig:LeftHandPinky1
								{
									OFFSET 8.077789 -0.486847 -3.806259
									CHANNELS 6 Xposition Yposition Zposition Xrotation Yrotation Zrotation
									JOINT mixamorig:LeftHandPinky2
									{
										OFFSET 3.599953 0.000031 0.014727
										CHANNELS 6 Xposition Yposition Zposition Xrotation Yrotation Zrotation
										JOINT mixamorig:LeftHandPinky3
										{
											OFFSET 2.100021 0.000015 0.007705
											CHANNELS 6 Xposition Yposition Zposition Xrotation Yrotation Zrotation
											JOINT mixamorig:LeftHandPinky4
											{
												OFFSET 2.125504 0.000031 0.007517
												CHANNELS 6 Xposition Yposition Zposition Xrotation Yrotation Zrotation
												End Site
												{
													OFFSET 212.550781 0.000000 0.625752
												}
											}
										}
									}
								}
							}
						}
					}
				}
			}
		}
	}
	JOINT mixamorig:RightUpLeg
	{
		OFFSET -8.207787 -6.751648 -1.599560
		CHANNELS 6 Xposition Yposition Zposition Xrotation Yrotation Zrotation
		JOINT mixamorig:RightLeg
		{
			OFFSET -0.000002 -44.370117 0.345942
			CHANNELS 6 Xposition Yposition Zposition Xrotation Yrotation Zrotation
			JOINT mixamorig:RightFoot
			{
				OFFSET 0.000003 -44.423679 -3.043532
				CHANNELS 6 Xposition Yposition Zposition Xrotation Yrotation Zrotation
				JOINT mixamorig:RightToeBase
				{
					OFFSET -0.000002 -8.728671 10.710558
					CHANNELS 6 Xposition Yposition Zposition Xrotation Yrotation Zrotation
					JOINT mixamorig:RightToe_End
					{
						OFFSET -0.000001 -0.000679 9.278119
						CHANNELS 6 Xposition Yposition Zposition Xrotation Yrotation Zrotation
						End Site
						{
							OFFSET 0.000000 -0.067690 927.812134
						}
					}
				}
			}
		}
	}
	JOINT mixamorig:LeftUpLeg
	{
		OFFSET 8.207793 -6.751686 -1.599556
		CHANNELS 6 Xposition Yposition Zposition Xrotation Yrotation Zrotation
		JOINT mixamorig:LeftLeg
		{
			OFFSET -0.000004 -44.370014 0.346954
			CHANNELS 6 Xposition Yposition Zposition Xrotation Yrotation Zrotation
			JOINT mixamorig:LeftFoot
			{
				OFFSET -0.000001 -44.423672 -3.044401
				CHANNELS 6 Xposition Yposition Zposition Xrotation Yrotation Zrotation
				JOINT mixamorig:LeftToeBase
				{
					OFFSET -0.000002 -8.728669 10.710558
					CHANNELS 6 Xposition Yposition Zposition Xrotation Yrotation Zrotation
					JOINT mixamorig:LeftToe_End
					{
						OFFSET -0.000003 -0.000679 9.278133
						CHANNELS 6 Xposition Yposition Zposition Xrotation Yrotation Zrotation
						End Site
						{
							OFFSET 0.000000 -0.068021 927.813477
						}
					}
				}
			}
		}
	}
}
MOTION
Frames: 3
Frame Time: 0.033333
0.000006 104.270477 1.554256 0.000010 0.000003 -0.000113 -0.000005 10.181587 0.131522 0.000001 -0.000003 0.000084 -0.000000 9.893967 -1.470711 0.000001 0.000000 -0.000000 -0.000000 9.220802 -1.370642 0.000000 -0.000000 -0.000000 0.000001 16.740433 -2.049030 0.000000 -0.000000 -0.000000 0.000000 9.617859 1.685014 0.000000 0.000000 0.000000 0.000002 22.037384 7.501101 0.000000 -0.000000 0.000000 -4.569968 11.014880 -2.160881 0.000008 0.000001 -0.000038 -10.592869 -0.524782 -2.231889 74.157830 33.267147 -25.444855 -27.841524 0.000012 0.000539 -55.872423 107.291521 71.542530 -28.328821 0.000020 0.000029 -0.000318 -0.000047 0.000007 -2.464435 -1.573843 2.682376 -40.362696 -161.952801 8.653648 -3.215285 -1.872606 1.924685 156.998223 29.335878 -10.403188 -2.654948 -1.527905 1.513101 147.047880 26.275669 -43.671577 -2.018830 -1.152016 1.108063 -0.000006 0.000002 0.000003 -9.108396 -0.517562 2.260115 93.691037 18.202878 -19.443196 -3.700061 0.000314 0.001490 91.484298 12.752215 -13.060091 -2.850063 0.000371 -0.000289 88.788457 10.370595 -10.153841 -2.772163 -0.000001 -0.000021 0.000002 -0.000000 -0.000000 -9.532587 0.000253 0.000175 78.238328 15.702912 -12.913863 -3.700058 0.000304 0.003892 78.604412 10.367504 -8.417625 -2.950044 0.000309 -0.001902 77.522872 10.992370 -8.829843 -2.946639 0.000002 -0.000154 0.000002 -0.000000 -0.000000 -9.103710 -0.042778 -1.864947 73.191768 19.161811 -14.253713 -3.379330 0.000294 -0.000894 74.496477 10.843215 -8.268748 -2.889781 0.000331 0.000566 78.408475 6.955489 -5.713225 -2.638803 -0.000003 0.000942 0.000001 0.000000 0.000001 -8.076759 -0.486428 -3.806119 64.311613 16.726402 -10.462508 -3.600047 0.000231 -0.003621 65.958030 8.983105 -5.599956 -2.100014 0.000284 -0.005565 69.598514 7.113024 -4.789699 -2.115765 -0.000056 -0.003673 0.000001 0.000002 -0.000005 4.570446 11.014691 -2.160851 -0.000018 0.000010 -0.000021 10.592429 -0.524461 -2.232379 74.337013 -22.741166 17.338345 27.841831 0.000077 -0.000196 104.858956 -71.331176 86.023514 28.328833 -0.000031 0.000018 0.000023 -0.000090 -0.000000 2.465879 -1.576056 2.681890 -52.481859 177.496563 26.114216 3.217830 -1.871787 1.916388 154.050504 -27.937340 18.737212 2.656096 -1.528626 1.514453 141.504444 -27.798364 38.779389 2.020887 -1.154065 1.115149 -0.000002 0.000001 0.000004 9.109369 -0.517873 2.259738 80.278820 -16.383025 13.831675 3.700041 0.000142 -0.000455 79.532581 -17.378252 14.510640 2.850050 0.000157 0.000196 76.354849 -14.263342 11.236112 2.774890 -0.000013 -0.000021 0.000000 0.000001 -0.000001 9.533455 0.000196 -0.000103 81.396894 -15.382563 13.243410 3.700030 0.000161 -0.000368 84.300346 -14.932530 13.527650 2.950075 0.000151 -0.000180 81.561714 -18.342666 15.859522 2.952860 -0.000031 0.000061 -0.000003 -0.000001 -0.000001 9.104578 -0.042849 -1.865225 81.726068 -15.626313 13.541057 3.150055 0.000182 -0.000098 86.079064 -15.229034 14.233420 2.950035 0.000154 -0.000056 85.809490 -16.225768 15.095837 2.644324 0.000046 0.000058 -0.000003 0.000000 0.000001 8.077850 -0.486747 -3.806412 69.678571 -18.655905 13.472569 3.600007 0.000148 0.014571 69.507891 -14.068078 10.149582 2.100058 0.000142 0.007558 70.174859 -12.566809 9.192234 2.125510 -0.000015 0.007508 -0.000001 0.000004 0.000000 -8.207786 -6.751667 -1.599560 -0.077001 -0.000003 0.000080 -0.000002 -44.370110 0.345938 0.153719 -0.000000 -0.000000 0.000000 -44.423679 -3.043532 -0.076700 0.000000 -0.000002 -0.000006 -8.728667 10.710559 -0.000009 -0.000000 -0.000000 -0.000001 -0.000679 9.278123 0.000000 -0.000000 -0.000000 8.207792 -6.751710 -1.599556 -0.074518 -0.000003 0.000081 -0.000002 -44.370014 0.346960 0.148822 0.000002 0.000000 -0.000001 -44.423664 -3.044403 -0.074314 0.000000 -0.000002 -0.000004 -8.728671 10.710558 0.000007 -0.000000 -0.000000 0.000000 -0.000680 9.278137 -0.000000 0.000000 -0.000001 
0.000006 104.270477 1.554256 0.000010 0.000003 -0.000113 -0.000005 10.181587 0.131522 0.000001 -0.000003 0.000084 -0.000000 9.893967 -1.470711 0.000001 0.000000 -0.000000 -0.000000 9.220802 -1.370642 0.000000 -0.000000 -0.000000 0.000001 16.740433 -2.049030 0.000000 -0.000000 -0.000000 0.000000 9.617859 1.685014 0.000000 0.000000 0.000000 0.000002 22.037384 7.501101 0.000000 -0.000000 0.000000 -4.569968 11.014880 -2.160881 0.000008 0.000001 -0.000038 -10.592869 -0.524781 -2.231890 74.929935 32.164662 -24.917729 -27.841534 0.000012 0.000542 -53.626117 106.480402 68.164619 -28.328821 0.000005 0.000028 -0.000318 -0.000043 0.000007 -2.464473 -1.573696 2.682288 -54.218161 -178.413065 -31.966501 -3.215295 -1.872607 1.924666 152.085240 30.445490 -2.040825 -2.654966 -1.527875 1.513080 142.688512 27.911799 -34.837752 -2.018829 -1.152001 1.108060 -0.000003 0.000000 -0.000000 -9.108366 -0.517546 2.260086 92.664125 13.199665 -13.869546 -3.700054 0.000329 0.001465 89.663520 9.578836 -9.500702 -2.850075 0.000375 -0.000307 89.003594 8.120930 -7.980492 -2.772163 -0.000014 -0.000019 0.000003 -0.000003 -0.000000 -9.532566 0.000270 0.000140 76.620420 12.038906 -9.633221 -3.700057 0.000323 0.003869 74.350304 7.201230 -5.396188 -2.950047 0.000323 -0.001906 76.145900 8.592597 -6.730386 -2.946609 0.000003 -0.000153 -0.000001 0.000001 -0.000000 -9.103694 -0.042767 -1.864963 73.214662 16.200847 -12.037498 -3.379311 0.000299 -0.000908 74.260706 8.262805 -6.273618 -2.889746 0.000333 0.000544 77.737108 5.932225 -4.819130 -2.638809 -0.000002 0.000940 -0.000000 0.000000 0.000003 -8.076732 -0.486424 -3.806114 66.011524 15.841688 -10.228201 -3.600047 0.000224 -0.003622 63.637685 8.228526 -4.887275 -2.099992 0.000278 -0.005607 64.839785 5.314187 -3.236368 -2.115773 -0.000054 -0.003674 0.000000 -0.000000 -0.000001 4.570446 11.014691 -2.160851 -0.000018 0.000010 -0.000021 10.592400 -0.524477 -2.232350 73.783255 -12.228324 9.193813 27.841831 0.000093 -0.000185 105.789966 -71.820559 87.502277 28.328840 -0.000028 0.000019 0.000022 -0.000089 -0.000000 2.465898 -1.576077 2.681908 -50.841944 180.764153 20.942928 3.217843 -1.871827 1.916380 158.560110 -26.316944 25.717588 2.656109 -1.528671 1.514452 138.029544 -28.194358 51.865588 2.020880 -1.154082 1.115151 0.000001 0.000003 0.000001 9.109365 -0.517888 2.259724 82.325465 -17.098158 14.963768 3.700016 0.000140 -0.000465 78.498517 -12.031756 9.855880 2.850055 0.000166 0.000190 78.585124 -9.953792 8.150653 2.774873 -0.000015 -0.000028 0.000000 -0.000002 -0.000000 9.533468 0.000201 -0.000101 82.183705 -16.678562 14.562196 3.700029 0.000163 -0.000382 84.249953 -11.040526 9.987850 2.950060 0.000174 -0.000197 86.045658 -11.828204 11.046568 2.952872 -0.000030 0.000063 0.000000 0.000003 0.000001 9.104574 -0.042866 -1.865218 81.405610 -16.779393 14.462478 3.150062 0.000197 -0.000094 87.499702 -11.277326 10.800272 2.950029 0.000185 -0.000089 89.056589 -10.632042 10.461078 2.644318 0.000016 0.000054 0.000002 -0.000000 -0.000000 8.077839 -0.486743 -3.806424 71.819173 -18.671652 14.021297 3.599999 0.000152 0.014560 73.140295 -15.187248 11.687916 2.100014 0.000154 0.007525 74.953915 -11.612825 9.287301 2.125511 0.000000 0.007514 0.000000 -0.000002 -0.000003 -8.207786 -6.751667 -1.599560 -0.077001 -0.000003 0.000080 -0.000002 -44.370110 0.345938 0.153719 -0.000000 -0.000000 0.000000 -44.423679 -3.043532 -0.076700 0.000000 -0.000002 -0.000006 -8.728667 10.710559 -0.000009 -0.000000 -0.000000 -0.000001 -0.000679 9.278123 0.000000 -0.000000 -0.000000 8.207792 -6.751710 -1.599556 -0.074518 -0.000003 0.000081 -0.000002 -44.370014 0.346960 0.148822 0.000002 0.000000 -0.000001 -44.423664 -3.044403 -0.074314 0.000000 -0.000002 -0.000004 -8.728671 10.710558 0.000007 -0.000000 -0.000000 0.000000 -0.000680 9.278137 -0.000000 0.000000 -0.000001 
0.000006 104.270477 1.554256 0.000010 0.000003 -0.000113 -0.000005 10.181587 0.131522 0.000001 -0.000003 0.000084 -0.000000 9.893967 -1.470711 0.000001 0.000000 -0.000000 -0.000000 9.220802 -1.370642 0.000000 -0.000000 -0.000000 0.000001 16.740433 -2.049030 0.000000 -0.000000 -0.000000 0.000000 9.617859 1.685014 0.000000 0.000000 0.000000 0.000002 22.037384 7.501101 0.000000 -0.000000 0.000000 -4.569968 11.014880 -2.160881 0.000008 0.000001 -0.000038 -10.592861 -0.524799 -2.231862 75.433825 38.571697 -30.284550 -27.841530 0.000018 0.000555 -51.828264 103.270165 63.082965 -28.328836 0.000009 0.000029 -0.000325 -0.000047 0.000010 -2.464457 -1.573694 2.682297 -53.737470 -178.171618 -30.089691 -3.215294 -1.872606 1.924657 152.108135 30.283621 -3.184028 -2.654967 -1.527881 1.513057 142.155798 28.001137 -34.931725 -2.018833 -1.152015 1.108063 -0.000004 0.000002 0.000002 -9.108360 -0.517547 2.260079 92.810195 13.408259 -14.123523 -3.700041 0.000340 0.001461 90.010173 9.619763 -9.599001 -2.850085 0.000365 -0.000293 89.280476 8.246441 -8.142996 -2.772184 -0.000017 -0.000020 -0.000001 -0.000003 -0.000004 -9.532565 0.000270 0.000154 76.973001 12.484642 -10.050464 -3.700065 0.000309 0.003883 74.628607 7.592999 -5.722172 -2.950029 0.000319 -0.001920 76.087597 8.880832 -6.949397 -2.946622 -0.000013 -0.000155 -0.000000 0.000000 -0.000001 -9.103689 -0.042772 -1.864952 73.401782 16.861048 -12.574745 -3.379328 0.000305 -0.000900 74.419631 8.822567 -6.717825 -2.889737 0.000328 0.000530 77.620578 6.192133 -5.018517 -2.638799 -0.000016 0.000935 0.000002 0.000001 -0.000001 -8.076730 -0.486411 -3.806110 66.333786 16.477809 -10.710740 -3.600048 0.000232 -0.003636 64.100806 9.139077 -5.500508 -2.100011 0.000249 -0.005610 65.271924 5.995833 -3.699032 -2.115752 -0.000037 -0.003681 -0.000000 -0.000003 -0.000003 4.570446 11.014691 -2.160851 -0.000018 0.000010 -0.000021 10.592431 -0.524467 -2.232380 73.513183 -24.177447 18.177411 27.841831 0.000054 -0.000175 107.357535 -73.868851 91.280752 28.328823 -0.000027 0.000023 0.000023 -0.000088 0.000001 2.465928 -1.576126 2.681920 -46.567591 174.557300 5.374234 3.217859 -1.871839 1.916385 159.800158 -25.189007 30.324127 2.656088 -1.528652 1.514470 140.284244 -27.460482 52.196022 2.020887 -1.154077 1.115147 -0.000003 -0.000004 0.000001 9.109371 -0.517870 2.259726 84.444723 -17.917987 16.271635 3.700034 0.000156 -0.000472 80.461234 -11.764079 9.976325 2.850034 0.000190 0.000191 79.787224 -9.443449 7.898484 2.774880 -0.000030 -0.000026 0.000001 0.000002 -0.000000 9.533457 0.000192 -0.000074 82.605927 -17.262002 15.184820 3.700034 0.000168 -0.000396 83.915629 -10.375528 9.330865 2.950070 0.000178 -0.000197 85.010249 -11.137590 10.215348 2.952844 -0.000017 0.000065 -0.000004 0.000002 -0.000001 9.104579 -0.042868 -1.865224 81.304058 -16.985577 14.614914 3.150036 0.000198 -0.000111 85.714031 -10.951588 10.167513 2.950034 0.000176 -0.000081 86.966292 -10.175544 9.654725 2.644324 0.000032 0.000056 0.000004 0.000001 0.000000 8.077826 -0.486746 -3.806413 71.787481 -18.371467 13.791876 3.600003 0.000147 0.014558 72.062232 -15.328744 11.566126 2.100041 0.000161 0.007545 74.118119 -11.787292 9.281775 2.125506 -0.000000 0.007518 0.000001 -0.000002 -0.000001 -8.207786 -6.751667 -1.599560 -0.077001 -0.000003 0.000080 -0.000002 -44.370110 0.345938 0.153719 -0.000000 -0.000000 0.000000 -44.423679 -3.043532 -0.076700 0.000000 -0.000002 -0.000006 -8.728667 10.710559 -0.000009 -0.000000 -0.000000 -0.000001 -0.000679 9.278123 0.000000 -0.000000 -0.000000 8.207792 -6.751710 -1.599556 -0.074518 -0.000003 0.000081 -0.000002 -44.370014 0.346960 0.148822 0.000002 0.000000 -0.000001 -44.423664 -3.044403 -0.074314 0.000000 -0.000002 -0.000004 -8.728671 10.710558 0.000007 -0.000000 -0.000000 0.000000 -0.000680 9.278137 -0.000000 0.000000 -0.000001 
